<mxfile host="app.diagrams.net" agent="Mozilla/5.0 (Windows NT 10.0; Win64; x64) AppleWebKit/537.36 (KHTML, like Gecko) Chrome/134.0.0.0 Safari/537.36" version="26.1.1">
  <diagram id="glenbrook-grading-system" name="Glenbrook Elementary School Grading System">
    <mxGraphModel dx="2268" dy="1816" grid="1" gridSize="10" guides="1" tooltips="1" connect="1" arrows="1" fold="1" page="1" pageScale="1" pageWidth="850" pageHeight="1100" math="0" shadow="0">
      <root>
        <mxCell id="0" />
        <mxCell id="1" parent="0" />
        <mxCell id="9" value="" style="edgeStyle=entityRelationEdgeStyle;fontSize=12;html=1;endArrow=ERmany;startArrow=ERone;rounded=0;entryX=1;entryY=0;entryDx=0;entryDy=0;startFill=0;endFill=0;exitX=0;exitY=0.5;exitDx=0;exitDy=0;" parent="1" source="iKPsb3ESiAYjKRTTwFBM-44" target="iKPsb3ESiAYjKRTTwFBM-43" edge="1">
          <mxGeometry width="100" height="100" relative="1" as="geometry">
            <mxPoint x="690" y="-40" as="sourcePoint" />
            <mxPoint x="310" y="60" as="targetPoint" />
          </mxGeometry>
        </mxCell>
        <mxCell id="10" value="attends" style="edgeLabel;html=1;align=center;verticalAlign=middle;resizable=0;points=[];" parent="9" vertex="1" connectable="0">
          <mxGeometry x="0.0968" y="-1" relative="1" as="geometry">
            <mxPoint as="offset" />
          </mxGeometry>
        </mxCell>
        <mxCell id="11" value="" style="edgeStyle=entityRelationEdgeStyle;fontSize=12;html=1;endArrow=ERmany;startArrow=ERone;rounded=0;exitX=1;exitY=0.75;exitDx=0;exitDy=0;startFill=0;endFill=0;entryX=0;entryY=0.25;entryDx=0;entryDy=0;" parent="1" source="iKPsb3ESiAYjKRTTwFBM-44" target="iKPsb3ESiAYjKRTTwFBM-36" edge="1">
          <mxGeometry width="100" height="100" relative="1" as="geometry">
            <mxPoint x="750" y="10" as="sourcePoint" />
            <mxPoint x="850" y="280" as="targetPoint" />
          </mxGeometry>
        </mxCell>
        <mxCell id="12" value="employs" style="edgeLabel;html=1;align=center;verticalAlign=middle;resizable=0;points=[];" parent="11" vertex="1" connectable="0">
          <mxGeometry x="0.0968" y="-1" relative="1" as="geometry">
            <mxPoint as="offset" />
          </mxGeometry>
        </mxCell>
        <mxCell id="13" value="" style="edgeStyle=entityRelationEdgeStyle;fontSize=12;html=1;endArrow=ERmany;startArrow=ERmany;rounded=0;entryX=1;entryY=0.25;entryDx=0;entryDy=0;startFill=0;endFill=0;" parent="1" source="iKPsb3ESiAYjKRTTwFBM-36" target="iKPsb3ESiAYjKRTTwFBM-37" edge="1">
          <mxGeometry width="100" height="100" relative="1" as="geometry">
            <mxPoint x="940" y="340" as="sourcePoint" />
            <mxPoint x="918" y="488.44000000000005" as="targetPoint" />
          </mxGeometry>
        </mxCell>
        <mxCell id="14" value="teaches" style="edgeLabel;html=1;align=center;verticalAlign=middle;resizable=0;points=[];" parent="13" vertex="1" connectable="0">
          <mxGeometry x="0.0968" y="-1" relative="1" as="geometry">
            <mxPoint as="offset" />
          </mxGeometry>
        </mxCell>
        <mxCell id="28" value="" style="edgeStyle=entityRelationEdgeStyle;fontSize=12;html=1;endArrow=ERmany;startArrow=ERone;rounded=0;entryX=0;entryY=0.25;entryDx=0;entryDy=0;exitX=1;exitY=0.5;exitDx=0;exitDy=0;startFill=0;endFill=0;" parent="1" source="iKPsb3ESiAYjKRTTwFBM-43" target="iKPsb3ESiAYjKRTTwFBM-40" edge="1">
          <mxGeometry width="100" height="100" relative="1" as="geometry">
            <mxPoint x="310" y="120" as="sourcePoint" />
            <mxPoint x="360" y="270" as="targetPoint" />
          </mxGeometry>
        </mxCell>
        <mxCell id="29" value="has" style="edgeLabel;html=1;align=center;verticalAlign=middle;resizable=0;points=[];" parent="28" vertex="1" connectable="0">
          <mxGeometry x="0.0968" y="-1" relative="1" as="geometry">
            <mxPoint as="offset" />
          </mxGeometry>
        </mxCell>
        <mxCell id="30" value="" style="edgeStyle=entityRelationEdgeStyle;fontSize=12;html=1;endArrow=ERmany;startArrow=ERone;rounded=0;entryX=1;entryY=0.75;entryDx=0;entryDy=0;startFill=0;endFill=0;exitX=0;exitY=0.5;exitDx=0;exitDy=0;" parent="1" source="iKPsb3ESiAYjKRTTwFBM-37" target="iKPsb3ESiAYjKRTTwFBM-40" edge="1">
          <mxGeometry width="100" height="100" relative="1" as="geometry">
            <mxPoint x="790" y="550" as="sourcePoint" />
            <mxPoint x="520" y="330" as="targetPoint" />
          </mxGeometry>
        </mxCell>
        <mxCell id="31" value="included in" style="edgeLabel;html=1;align=center;verticalAlign=middle;resizable=0;points=[];" parent="30" vertex="1" connectable="0">
          <mxGeometry x="0.0968" y="-1" relative="1" as="geometry">
            <mxPoint as="offset" />
          </mxGeometry>
        </mxCell>
        <mxCell id="32" value="" style="edgeStyle=entityRelationEdgeStyle;fontSize=12;html=1;endArrow=ERmany;startArrow=ERone;rounded=0;entryX=1;entryY=0.25;entryDx=0;entryDy=0;exitX=0;exitY=0.75;exitDx=0;exitDy=0;startFill=0;endFill=0;" parent="1" source="iKPsb3ESiAYjKRTTwFBM-36" target="iKPsb3ESiAYjKRTTwFBM-40" edge="1">
          <mxGeometry width="100" height="100" relative="1" as="geometry">
            <mxPoint x="780" y="290" as="sourcePoint" />
            <mxPoint x="520" y="300" as="targetPoint" />
          </mxGeometry>
        </mxCell>
        <mxCell id="33" value="instructs" style="edgeLabel;html=1;align=center;verticalAlign=middle;resizable=0;points=[];" parent="32" vertex="1" connectable="0">
          <mxGeometry x="0.0968" y="-1" relative="1" as="geometry">
            <mxPoint as="offset" />
          </mxGeometry>
        </mxCell>
        <mxCell id="15" value="" style="edgeStyle=entityRelationEdgeStyle;fontSize=12;html=1;endArrow=ERmany;startArrow=ERone;rounded=0;entryX=1;entryY=0;entryDx=0;entryDy=0;exitX=1;exitY=0.75;exitDx=0;exitDy=0;startFill=0;endFill=0;" parent="1" source="iKPsb3ESiAYjKRTTwFBM-43" target="iKPsb3ESiAYjKRTTwFBM-42" edge="1">
          <mxGeometry width="100" height="100" relative="1" as="geometry">
            <mxPoint x="230" y="120" as="sourcePoint" />
            <mxPoint x="160" y="230" as="targetPoint" />
            <Array as="points">
              <mxPoint x="240" y="440" />
            </Array>
          </mxGeometry>
        </mxCell>
        <mxCell id="16" value="receives" style="edgeLabel;html=1;align=center;verticalAlign=middle;resizable=0;points=[];" parent="15" vertex="1" connectable="0">
          <mxGeometry x="0.0968" y="-1" relative="1" as="geometry">
            <mxPoint as="offset" />
          </mxGeometry>
        </mxCell>
        <mxCell id="17" value="" style="edgeStyle=entityRelationEdgeStyle;fontSize=12;html=1;endArrow=ERmany;startArrow=ERone;rounded=0;entryX=1;entryY=0.75;entryDx=0;entryDy=0;startFill=0;endFill=0;exitX=0;exitY=0.75;exitDx=0;exitDy=0;" parent="1" source="iKPsb3ESiAYjKRTTwFBM-37" target="iKPsb3ESiAYjKRTTwFBM-39" edge="1">
          <mxGeometry width="100" height="100" relative="1" as="geometry">
            <mxPoint x="890" y="660" as="sourcePoint" />
            <mxPoint x="340" y="830" as="targetPoint" />
            <Array as="points">
              <mxPoint x="680" y="710" />
              <mxPoint x="550" y="665" />
            </Array>
          </mxGeometry>
        </mxCell>
        <mxCell id="18" value="includes" style="edgeLabel;html=1;align=center;verticalAlign=middle;resizable=0;points=[];" parent="17" vertex="1" connectable="0">
          <mxGeometry x="0.0968" y="-1" relative="1" as="geometry">
            <mxPoint as="offset" />
          </mxGeometry>
        </mxCell>
        <mxCell id="19" value="" style="edgeStyle=entityRelationEdgeStyle;fontSize=12;html=1;endArrow=ERone;startArrow=ERmany;rounded=0;entryX=0;entryY=0.5;entryDx=0;entryDy=0;startFill=0;endFill=0;exitX=1;exitY=0.75;exitDx=0;exitDy=0;" parent="1" source="iKPsb3ESiAYjKRTTwFBM-42" edge="1">
          <mxGeometry width="100" height="100" relative="1" as="geometry">
            <mxPoint x="120" y="320" as="sourcePoint" />
            <mxPoint x="180" y="755" as="targetPoint" />
          </mxGeometry>
        </mxCell>
        <mxCell id="20" value="evaluates" style="edgeLabel;html=1;align=center;verticalAlign=middle;resizable=0;points=[];" parent="19" vertex="1" connectable="0">
          <mxGeometry x="0.0968" y="-1" relative="1" as="geometry">
            <mxPoint as="offset" />
          </mxGeometry>
        </mxCell>
        <mxCell id="21" value="" style="edgeStyle=entityRelationEdgeStyle;fontSize=12;html=1;endArrow=ERmany;startArrow=ERone;rounded=0;entryX=1;entryY=0.25;entryDx=0;entryDy=0;startFill=0;endFill=0;exitX=0;exitY=0;exitDx=0;exitDy=0;" parent="1" source="iKPsb3ESiAYjKRTTwFBM-36" target="iKPsb3ESiAYjKRTTwFBM-43" edge="1">
          <mxGeometry width="100" height="100" relative="1" as="geometry">
            <mxPoint x="778.8800000000001" y="273.20000000000005" as="sourcePoint" />
            <mxPoint x="310" y="90" as="targetPoint" />
          </mxGeometry>
        </mxCell>
        <mxCell id="22" value="advises" style="edgeLabel;html=1;align=center;verticalAlign=middle;resizable=0;points=[];" parent="21" vertex="1" connectable="0">
          <mxGeometry x="0.0968" y="-1" relative="1" as="geometry">
            <mxPoint as="offset" />
          </mxGeometry>
        </mxCell>
        <mxCell id="23" value="" style="edgeStyle=entityRelationEdgeStyle;fontSize=12;html=1;endArrow=ERmany;startArrow=ERone;rounded=0;entryX=1;entryY=0.25;entryDx=0;entryDy=0;exitX=0;exitY=0;exitDx=0;exitDy=0;startFill=0;endFill=0;" parent="1" source="iKPsb3ESiAYjKRTTwFBM-38" target="iKPsb3ESiAYjKRTTwFBM-42" edge="1">
          <mxGeometry width="100" height="100" relative="1" as="geometry">
            <mxPoint x="390" y="480" as="sourcePoint" />
            <mxPoint x="160" y="320" as="targetPoint" />
          </mxGeometry>
        </mxCell>
        <mxCell id="24" value="contains" style="edgeLabel;html=1;align=center;verticalAlign=middle;resizable=0;points=[];" parent="23" vertex="1" connectable="0">
          <mxGeometry x="0.0968" y="-1" relative="1" as="geometry">
            <mxPoint as="offset" />
          </mxGeometry>
        </mxCell>
        <mxCell id="34" value="" style="edgeStyle=entityRelationEdgeStyle;fontSize=12;html=1;endArrow=ERmany;startArrow=ERone;rounded=0;startFill=0;endFill=0;" parent="1" source="iKPsb3ESiAYjKRTTwFBM-38" target="iKPsb3ESiAYjKRTTwFBM-40" edge="1">
          <mxGeometry width="100" height="100" relative="1" as="geometry">
            <mxPoint x="550" y="500" as="sourcePoint" />
            <mxPoint x="490" y="300" as="targetPoint" />
          </mxGeometry>
        </mxCell>
        <mxCell id="35" value="applies to" style="edgeLabel;html=1;align=center;verticalAlign=middle;resizable=0;points=[];" parent="34" vertex="1" connectable="0">
          <mxGeometry x="0.0968" y="-1" relative="1" as="geometry">
            <mxPoint as="offset" />
          </mxGeometry>
        </mxCell>
        <mxCell id="25" value="" style="edgeStyle=entityRelationEdgeStyle;fontSize=12;html=1;endArrow=ERmany;startArrow=ERone;rounded=0;entryX=1;entryY=0.25;entryDx=0;entryDy=0;startFill=0;endFill=0;exitX=0.003;exitY=0.64;exitDx=0;exitDy=0;exitPerimeter=0;" parent="1" source="iKPsb3ESiAYjKRTTwFBM-38" target="iKPsb3ESiAYjKRTTwFBM-39" edge="1">
          <mxGeometry width="100" height="100" relative="1" as="geometry">
            <mxPoint x="390" y="570" as="sourcePoint" />
            <mxPoint x="340" y="717.5" as="targetPoint" />
            <Array as="points">
              <mxPoint x="460" y="700" />
            </Array>
          </mxGeometry>
        </mxCell>
        <mxCell id="26" value="defines" style="edgeLabel;html=1;align=center;verticalAlign=middle;resizable=0;points=[];" parent="25" vertex="1" connectable="0">
          <mxGeometry x="0.0968" y="-1" relative="1" as="geometry">
            <mxPoint as="offset" />
          </mxGeometry>
        </mxCell>
        <mxCell id="iKPsb3ESiAYjKRTTwFBM-36" value="Teacher" style="rounded=0;whiteSpace=wrap;html=1;" vertex="1" parent="1">
          <mxGeometry x="860" y="260" width="120" height="60" as="geometry" />
        </mxCell>
        <mxCell id="iKPsb3ESiAYjKRTTwFBM-37" value="Subject" style="rounded=0;whiteSpace=wrap;html=1;" vertex="1" parent="1">
          <mxGeometry x="860" y="670" width="120" height="60" as="geometry" />
        </mxCell>
        <mxCell id="iKPsb3ESiAYjKRTTwFBM-38" value="&lt;b&gt;School Year&lt;/b&gt;" style="rounded=0;whiteSpace=wrap;html=1;" vertex="1" parent="1">
          <mxGeometry x="380" y="510" width="120" height="60" as="geometry" />
        </mxCell>
        <mxCell id="iKPsb3ESiAYjKRTTwFBM-39" value="&lt;b&gt;Assessment&lt;/b&gt;" style="rounded=0;whiteSpace=wrap;html=1;" vertex="1" parent="1">
          <mxGeometry x="180" y="730" width="120" height="60" as="geometry" />
        </mxCell>
        <mxCell id="iKPsb3ESiAYjKRTTwFBM-40" value="&lt;b&gt;Enrollment&lt;/b&gt;" style="rounded=0;whiteSpace=wrap;html=1;" vertex="1" parent="1">
          <mxGeometry x="470" y="180" width="120" height="60" as="geometry" />
        </mxCell>
        <mxCell id="iKPsb3ESiAYjKRTTwFBM-42" value="&lt;b&gt;Grade&lt;/b&gt;" style="rounded=0;whiteSpace=wrap;html=1;" vertex="1" parent="1">
          <mxGeometry x="50" y="250" width="160" height="60" as="geometry" />
        </mxCell>
        <mxCell id="iKPsb3ESiAYjKRTTwFBM-43" value="&lt;b&gt;Student&lt;/b&gt;" style="rounded=0;whiteSpace=wrap;html=1;" vertex="1" parent="1">
          <mxGeometry x="90" y="-20" width="120" height="60" as="geometry" />
        </mxCell>
        <mxCell id="iKPsb3ESiAYjKRTTwFBM-44" value="&lt;b&gt;School&lt;/b&gt;" style="rounded=0;whiteSpace=wrap;html=1;" vertex="1" parent="1">
          <mxGeometry x="690" y="-80" width="120" height="60" as="geometry" />
        </mxCell>
        <mxCell id="iKPsb3ESiAYjKRTTwFBM-46" value="&lt;u&gt;Student_Id (PK)&lt;/u&gt;" style="ellipse;whiteSpace=wrap;html=1;" vertex="1" parent="1">
          <mxGeometry x="70" y="-110" width="100" height="40" as="geometry" />
        </mxCell>
        <mxCell id="iKPsb3ESiAYjKRTTwFBM-47" value="Student Name" style="ellipse;whiteSpace=wrap;html=1;" vertex="1" parent="1">
          <mxGeometry x="190" y="-110" width="100" height="40" as="geometry" />
        </mxCell>
        <mxCell id="iKPsb3ESiAYjKRTTwFBM-49" value="Grade Level" style="ellipse;whiteSpace=wrap;html=1;" vertex="1" parent="1">
          <mxGeometry x="-40" y="-70" width="100" height="40" as="geometry" />
        </mxCell>
        <mxCell id="iKPsb3ESiAYjKRTTwFBM-50" value="HomeroomTeacherId" style="ellipse;whiteSpace=wrap;html=1;" vertex="1" parent="1">
          <mxGeometry x="-70" width="140" height="40" as="geometry" />
        </mxCell>
        <mxCell id="iKPsb3ESiAYjKRTTwFBM-51" value="&lt;u&gt;School Id&lt;/u&gt;" style="ellipse;whiteSpace=wrap;html=1;" vertex="1" parent="1">
          <mxGeometry x="730" y="-210" width="100" height="40" as="geometry" />
        </mxCell>
        <mxCell id="iKPsb3ESiAYjKRTTwFBM-52" value="School Name" style="ellipse;whiteSpace=wrap;html=1;" vertex="1" parent="1">
          <mxGeometry x="860" y="-150" width="100" height="40" as="geometry" />
        </mxCell>
        <mxCell id="iKPsb3ESiAYjKRTTwFBM-53" value="Address" style="ellipse;whiteSpace=wrap;html=1;" vertex="1" parent="1">
          <mxGeometry x="870" y="-70" width="100" height="40" as="geometry" />
        </mxCell>
        <mxCell id="iKPsb3ESiAYjKRTTwFBM-54" value="Principal_Name" style="ellipse;whiteSpace=wrap;html=1;" vertex="1" parent="1">
          <mxGeometry x="570" y="-190" width="120" height="40" as="geometry" />
        </mxCell>
        <mxCell id="iKPsb3ESiAYjKRTTwFBM-57" value="&lt;u&gt;TeacherId&lt;/u&gt;" style="ellipse;whiteSpace=wrap;html=1;" vertex="1" parent="1">
          <mxGeometry x="910" y="120" width="100" height="40" as="geometry" />
        </mxCell>
        <mxCell id="iKPsb3ESiAYjKRTTwFBM-58" value="Teacher_Name" style="ellipse;whiteSpace=wrap;html=1;" vertex="1" parent="1">
          <mxGeometry x="1020" y="130" width="100" height="40" as="geometry" />
        </mxCell>
        <mxCell id="iKPsb3ESiAYjKRTTwFBM-59" value="Is_HomeroomTeacher" style="ellipse;whiteSpace=wrap;html=1;" vertex="1" parent="1">
          <mxGeometry x="1050" y="200" width="130" height="40" as="geometry" />
        </mxCell>
        <mxCell id="iKPsb3ESiAYjKRTTwFBM-60" value="&lt;u&gt;Subject_Id&lt;/u&gt;" style="ellipse;whiteSpace=wrap;html=1;" vertex="1" parent="1">
          <mxGeometry x="930" y="820" width="130" height="40" as="geometry" />
        </mxCell>
        <mxCell id="iKPsb3ESiAYjKRTTwFBM-62" value="Subject_Name" style="ellipse;whiteSpace=wrap;html=1;" vertex="1" parent="1">
          <mxGeometry x="780" y="810" width="100" height="40" as="geometry" />
        </mxCell>
        <mxCell id="iKPsb3ESiAYjKRTTwFBM-63" value="Category" style="ellipse;whiteSpace=wrap;html=1;" vertex="1" parent="1">
          <mxGeometry x="1050" y="730" width="90" height="45" as="geometry" />
        </mxCell>
        <mxCell id="iKPsb3ESiAYjKRTTwFBM-64" value="&lt;u&gt;Assessment_Id&lt;/u&gt;" style="ellipse;whiteSpace=wrap;html=1;" vertex="1" parent="1">
          <mxGeometry x="60" y="820" width="130" height="40" as="geometry" />
        </mxCell>
        <mxCell id="iKPsb3ESiAYjKRTTwFBM-65" value="Subject_Id" style="ellipse;whiteSpace=wrap;html=1;" vertex="1" parent="1">
          <mxGeometry x="110" y="900" width="130" height="40" as="geometry" />
        </mxCell>
        <mxCell id="iKPsb3ESiAYjKRTTwFBM-66" value="Assessment_Year" style="ellipse;whiteSpace=wrap;html=1;" vertex="1" parent="1">
          <mxGeometry x="300" y="830" width="130" height="40" as="geometry" />
        </mxCell>
        <mxCell id="iKPsb3ESiAYjKRTTwFBM-67" value="Description" style="ellipse;whiteSpace=wrap;html=1;" vertex="1" parent="1">
          <mxGeometry x="250" y="950" width="130" height="40" as="geometry" />
        </mxCell>
        <mxCell id="iKPsb3ESiAYjKRTTwFBM-68" value="&lt;u&gt;SchoolYr_Id&lt;/u&gt;" style="ellipse;whiteSpace=wrap;html=1;" vertex="1" parent="1">
          <mxGeometry x="360" y="600" width="130" height="40" as="geometry" />
        </mxCell>
        <mxCell id="iKPsb3ESiAYjKRTTwFBM-69" value="Start_Dtae" style="ellipse;whiteSpace=wrap;html=1;" vertex="1" parent="1">
          <mxGeometry x="500" y="620" width="130" height="40" as="geometry" />
        </mxCell>
        <mxCell id="iKPsb3ESiAYjKRTTwFBM-70" value="End_Dtae" style="ellipse;whiteSpace=wrap;html=1;" vertex="1" parent="1">
          <mxGeometry x="570" y="570" width="130" height="40" as="geometry" />
        </mxCell>
        <mxCell id="iKPsb3ESiAYjKRTTwFBM-74" value="&lt;u&gt;Enrollment_Id&lt;/u&gt;" style="ellipse;whiteSpace=wrap;html=1;" vertex="1" parent="1">
          <mxGeometry x="345" y="290" width="90" height="30" as="geometry" />
        </mxCell>
        <mxCell id="iKPsb3ESiAYjKRTTwFBM-75" value="Student_Id" style="ellipse;whiteSpace=wrap;html=1;" vertex="1" parent="1">
          <mxGeometry x="420" y="330" width="80" height="20" as="geometry" />
        </mxCell>
        <mxCell id="iKPsb3ESiAYjKRTTwFBM-76" value="Subject_Id" style="ellipse;whiteSpace=wrap;html=1;" vertex="1" parent="1">
          <mxGeometry x="295" y="220" width="90" height="30" as="geometry" />
        </mxCell>
        <mxCell id="iKPsb3ESiAYjKRTTwFBM-77" value="Teacher_Id" style="ellipse;whiteSpace=wrap;html=1;" vertex="1" parent="1">
          <mxGeometry x="315" y="260" width="100" height="30" as="geometry" />
        </mxCell>
        <mxCell id="iKPsb3ESiAYjKRTTwFBM-78" value="&lt;blockquote style=&quot;margin: 0 0 0 40px; border: none; padding: 0px;&quot;&gt;SchoolYear_Id&lt;/blockquote&gt;" style="ellipse;whiteSpace=wrap;html=1;" vertex="1" parent="1">
          <mxGeometry x="440" y="370" width="130" height="40" as="geometry" />
        </mxCell>
        <mxCell id="iKPsb3ESiAYjKRTTwFBM-79" value="Semester" style="ellipse;whiteSpace=wrap;html=1;" vertex="1" parent="1">
          <mxGeometry x="305" y="180" width="80" height="30" as="geometry" />
        </mxCell>
        <mxCell id="iKPsb3ESiAYjKRTTwFBM-80" value="Semester" style="ellipse;whiteSpace=wrap;html=1;" vertex="1" parent="1">
          <mxGeometry x="-250" y="285" width="130" height="40" as="geometry" />
        </mxCell>
        <mxCell id="iKPsb3ESiAYjKRTTwFBM-81" value="&lt;u&gt;Grade_Id&lt;/u&gt;" style="ellipse;whiteSpace=wrap;html=1;" vertex="1" parent="1">
          <mxGeometry x="-240" y="190" width="130" height="40" as="geometry" />
        </mxCell>
        <mxCell id="iKPsb3ESiAYjKRTTwFBM-82" value="Student_Id" style="ellipse;whiteSpace=wrap;html=1;" vertex="1" parent="1">
          <mxGeometry x="-70" y="360" width="130" height="40" as="geometry" />
        </mxCell>
        <mxCell id="iKPsb3ESiAYjKRTTwFBM-83" value="Assessment_Id" style="ellipse;whiteSpace=wrap;html=1;" vertex="1" parent="1">
          <mxGeometry x="-210" y="360" width="130" height="40" as="geometry" />
        </mxCell>
        <mxCell id="iKPsb3ESiAYjKRTTwFBM-84" value="Value" style="ellipse;whiteSpace=wrap;html=1;" vertex="1" parent="1">
          <mxGeometry x="-80" y="180" width="130" height="40" as="geometry" />
        </mxCell>
        <mxCell id="iKPsb3ESiAYjKRTTwFBM-88" value="" style="endArrow=none;html=1;rounded=0;entryX=0.5;entryY=1;entryDx=0;entryDy=0;exitX=0.5;exitY=0;exitDx=0;exitDy=0;" edge="1" parent="1" source="iKPsb3ESiAYjKRTTwFBM-68" target="iKPsb3ESiAYjKRTTwFBM-38">
          <mxGeometry width="50" height="50" relative="1" as="geometry">
            <mxPoint x="680" y="410" as="sourcePoint" />
            <mxPoint x="730" y="360" as="targetPoint" />
          </mxGeometry>
        </mxCell>
        <mxCell id="iKPsb3ESiAYjKRTTwFBM-89" value="" style="endArrow=none;html=1;rounded=0;entryX=0;entryY=0.5;entryDx=0;entryDy=0;" edge="1" parent="1" target="iKPsb3ESiAYjKRTTwFBM-57">
          <mxGeometry width="50" height="50" relative="1" as="geometry">
            <mxPoint x="920" y="260" as="sourcePoint" />
            <mxPoint x="730" y="360" as="targetPoint" />
          </mxGeometry>
        </mxCell>
        <mxCell id="iKPsb3ESiAYjKRTTwFBM-90" value="" style="endArrow=none;html=1;rounded=0;exitX=1;exitY=1;exitDx=0;exitDy=0;entryX=0.039;entryY=0.228;entryDx=0;entryDy=0;entryPerimeter=0;" edge="1" parent="1" source="iKPsb3ESiAYjKRTTwFBM-38" target="iKPsb3ESiAYjKRTTwFBM-70">
          <mxGeometry width="50" height="50" relative="1" as="geometry">
            <mxPoint x="680" y="410" as="sourcePoint" />
            <mxPoint x="730" y="360" as="targetPoint" />
          </mxGeometry>
        </mxCell>
        <mxCell id="iKPsb3ESiAYjKRTTwFBM-91" value="" style="endArrow=none;html=1;rounded=0;entryX=0.304;entryY=0.044;entryDx=0;entryDy=0;entryPerimeter=0;exitX=0.75;exitY=1;exitDx=0;exitDy=0;" edge="1" parent="1" source="iKPsb3ESiAYjKRTTwFBM-38" target="iKPsb3ESiAYjKRTTwFBM-69">
          <mxGeometry width="50" height="50" relative="1" as="geometry">
            <mxPoint x="690" y="420" as="sourcePoint" />
            <mxPoint x="740" y="370" as="targetPoint" />
          </mxGeometry>
        </mxCell>
        <mxCell id="iKPsb3ESiAYjKRTTwFBM-92" value="" style="endArrow=none;html=1;rounded=0;entryX=0;entryY=0.5;entryDx=0;entryDy=0;exitX=1;exitY=0.25;exitDx=0;exitDy=0;" edge="1" parent="1" source="iKPsb3ESiAYjKRTTwFBM-36" target="iKPsb3ESiAYjKRTTwFBM-58">
          <mxGeometry width="50" height="50" relative="1" as="geometry">
            <mxPoint x="700" y="430" as="sourcePoint" />
            <mxPoint x="750" y="380" as="targetPoint" />
          </mxGeometry>
        </mxCell>
        <mxCell id="iKPsb3ESiAYjKRTTwFBM-93" value="" style="endArrow=none;html=1;rounded=0;entryX=0;entryY=0.5;entryDx=0;entryDy=0;exitX=1;exitY=0.25;exitDx=0;exitDy=0;" edge="1" parent="1" source="iKPsb3ESiAYjKRTTwFBM-36" target="iKPsb3ESiAYjKRTTwFBM-59">
          <mxGeometry width="50" height="50" relative="1" as="geometry">
            <mxPoint x="710" y="440" as="sourcePoint" />
            <mxPoint x="760" y="390" as="targetPoint" />
          </mxGeometry>
        </mxCell>
        <mxCell id="iKPsb3ESiAYjKRTTwFBM-94" value="" style="endArrow=none;html=1;rounded=0;entryX=0.636;entryY=0.006;entryDx=0;entryDy=0;entryPerimeter=0;exitX=0.174;exitY=0.985;exitDx=0;exitDy=0;exitPerimeter=0;" edge="1" parent="1" source="iKPsb3ESiAYjKRTTwFBM-37" target="iKPsb3ESiAYjKRTTwFBM-62">
          <mxGeometry width="50" height="50" relative="1" as="geometry">
            <mxPoint x="680" y="630" as="sourcePoint" />
            <mxPoint x="730" y="580" as="targetPoint" />
          </mxGeometry>
        </mxCell>
        <mxCell id="iKPsb3ESiAYjKRTTwFBM-95" value="" style="endArrow=none;html=1;rounded=0;entryX=0.5;entryY=1;entryDx=0;entryDy=0;exitX=0.32;exitY=0.089;exitDx=0;exitDy=0;exitPerimeter=0;" edge="1" parent="1" source="iKPsb3ESiAYjKRTTwFBM-60" target="iKPsb3ESiAYjKRTTwFBM-37">
          <mxGeometry width="50" height="50" relative="1" as="geometry">
            <mxPoint x="891" y="749" as="sourcePoint" />
            <mxPoint x="854" y="820" as="targetPoint" />
          </mxGeometry>
        </mxCell>
        <mxCell id="iKPsb3ESiAYjKRTTwFBM-96" value="" style="endArrow=none;html=1;rounded=0;entryX=1;entryY=1;entryDx=0;entryDy=0;exitX=0;exitY=1;exitDx=0;exitDy=0;" edge="1" parent="1" source="iKPsb3ESiAYjKRTTwFBM-63" target="iKPsb3ESiAYjKRTTwFBM-37">
          <mxGeometry width="50" height="50" relative="1" as="geometry">
            <mxPoint x="901" y="759" as="sourcePoint" />
            <mxPoint x="864" y="830" as="targetPoint" />
          </mxGeometry>
        </mxCell>
        <mxCell id="iKPsb3ESiAYjKRTTwFBM-97" value="" style="endArrow=none;html=1;rounded=0;entryX=0.75;entryY=1;entryDx=0;entryDy=0;exitX=0;exitY=0;exitDx=0;exitDy=0;" edge="1" parent="1" source="iKPsb3ESiAYjKRTTwFBM-66" target="iKPsb3ESiAYjKRTTwFBM-39">
          <mxGeometry width="50" height="50" relative="1" as="geometry">
            <mxPoint x="460" y="850" as="sourcePoint" />
            <mxPoint x="510" y="800" as="targetPoint" />
          </mxGeometry>
        </mxCell>
        <mxCell id="iKPsb3ESiAYjKRTTwFBM-98" value="" style="endArrow=none;html=1;rounded=0;entryX=0.5;entryY=1;entryDx=0;entryDy=0;exitX=1;exitY=0;exitDx=0;exitDy=0;" edge="1" parent="1" source="iKPsb3ESiAYjKRTTwFBM-65" target="iKPsb3ESiAYjKRTTwFBM-39">
          <mxGeometry width="50" height="50" relative="1" as="geometry">
            <mxPoint x="911" y="769" as="sourcePoint" />
            <mxPoint x="874" y="840" as="targetPoint" />
          </mxGeometry>
        </mxCell>
        <mxCell id="iKPsb3ESiAYjKRTTwFBM-99" value="" style="endArrow=none;html=1;rounded=0;entryX=0.619;entryY=0.981;entryDx=0;entryDy=0;entryPerimeter=0;" edge="1" parent="1" source="iKPsb3ESiAYjKRTTwFBM-67" target="iKPsb3ESiAYjKRTTwFBM-39">
          <mxGeometry width="50" height="50" relative="1" as="geometry">
            <mxPoint x="231" y="916" as="sourcePoint" />
            <mxPoint x="250" y="800" as="targetPoint" />
          </mxGeometry>
        </mxCell>
        <mxCell id="iKPsb3ESiAYjKRTTwFBM-100" value="" style="endArrow=none;html=1;rounded=0;entryX=0.167;entryY=1.026;entryDx=0;entryDy=0;entryPerimeter=0;" edge="1" parent="1" source="iKPsb3ESiAYjKRTTwFBM-64" target="iKPsb3ESiAYjKRTTwFBM-39">
          <mxGeometry width="50" height="50" relative="1" as="geometry">
            <mxPoint x="231" y="916" as="sourcePoint" />
            <mxPoint x="250" y="800" as="targetPoint" />
          </mxGeometry>
        </mxCell>
        <mxCell id="iKPsb3ESiAYjKRTTwFBM-101" value="" style="endArrow=none;html=1;rounded=0;entryX=1;entryY=1;entryDx=0;entryDy=0;exitX=0;exitY=0.5;exitDx=0;exitDy=0;" edge="1" parent="1" source="iKPsb3ESiAYjKRTTwFBM-40" target="iKPsb3ESiAYjKRTTwFBM-79">
          <mxGeometry width="50" height="50" relative="1" as="geometry">
            <mxPoint x="460" y="260" as="sourcePoint" />
            <mxPoint x="510" y="210" as="targetPoint" />
          </mxGeometry>
        </mxCell>
        <mxCell id="iKPsb3ESiAYjKRTTwFBM-102" value="" style="endArrow=none;html=1;rounded=0;entryX=1;entryY=0.5;entryDx=0;entryDy=0;" edge="1" parent="1" target="iKPsb3ESiAYjKRTTwFBM-76">
          <mxGeometry width="50" height="50" relative="1" as="geometry">
            <mxPoint x="470" y="220" as="sourcePoint" />
            <mxPoint x="384" y="215" as="targetPoint" />
          </mxGeometry>
        </mxCell>
        <mxCell id="iKPsb3ESiAYjKRTTwFBM-103" value="" style="endArrow=none;html=1;rounded=0;entryX=1;entryY=0;entryDx=0;entryDy=0;exitX=0;exitY=1;exitDx=0;exitDy=0;" edge="1" parent="1" source="iKPsb3ESiAYjKRTTwFBM-40" target="iKPsb3ESiAYjKRTTwFBM-77">
          <mxGeometry width="50" height="50" relative="1" as="geometry">
            <mxPoint x="490" y="230" as="sourcePoint" />
            <mxPoint x="394" y="225" as="targetPoint" />
          </mxGeometry>
        </mxCell>
        <mxCell id="iKPsb3ESiAYjKRTTwFBM-104" value="" style="endArrow=none;html=1;rounded=0;entryX=1;entryY=0;entryDx=0;entryDy=0;exitX=0;exitY=0.5;exitDx=0;exitDy=0;" edge="1" parent="1" target="iKPsb3ESiAYjKRTTwFBM-74">
          <mxGeometry width="50" height="50" relative="1" as="geometry">
            <mxPoint x="500" y="240" as="sourcePoint" />
            <mxPoint x="404" y="235" as="targetPoint" />
          </mxGeometry>
        </mxCell>
        <mxCell id="iKPsb3ESiAYjKRTTwFBM-105" value="" style="endArrow=none;html=1;rounded=0;entryX=0.739;entryY=-0.033;entryDx=0;entryDy=0;exitX=0.5;exitY=1;exitDx=0;exitDy=0;entryPerimeter=0;" edge="1" parent="1" source="iKPsb3ESiAYjKRTTwFBM-40" target="iKPsb3ESiAYjKRTTwFBM-75">
          <mxGeometry width="50" height="50" relative="1" as="geometry">
            <mxPoint x="510" y="250" as="sourcePoint" />
            <mxPoint x="414" y="245" as="targetPoint" />
          </mxGeometry>
        </mxCell>
        <mxCell id="iKPsb3ESiAYjKRTTwFBM-106" value="" style="endArrow=none;html=1;rounded=0;entryX=0.5;entryY=0;entryDx=0;entryDy=0;exitX=0.75;exitY=1;exitDx=0;exitDy=0;" edge="1" parent="1" source="iKPsb3ESiAYjKRTTwFBM-40" target="iKPsb3ESiAYjKRTTwFBM-78">
          <mxGeometry width="50" height="50" relative="1" as="geometry">
            <mxPoint x="520" y="260" as="sourcePoint" />
            <mxPoint x="424" y="255" as="targetPoint" />
          </mxGeometry>
        </mxCell>
        <mxCell id="iKPsb3ESiAYjKRTTwFBM-107" value="" style="endArrow=none;html=1;rounded=0;exitX=1;exitY=1;exitDx=0;exitDy=0;entryX=0.137;entryY=0.004;entryDx=0;entryDy=0;entryPerimeter=0;" edge="1" parent="1" source="iKPsb3ESiAYjKRTTwFBM-84" target="iKPsb3ESiAYjKRTTwFBM-42">
          <mxGeometry width="50" height="50" relative="1" as="geometry">
            <mxPoint x="240" y="170" as="sourcePoint" />
            <mxPoint x="290" y="120" as="targetPoint" />
          </mxGeometry>
        </mxCell>
        <mxCell id="iKPsb3ESiAYjKRTTwFBM-108" value="" style="endArrow=none;html=1;rounded=0;entryX=1;entryY=1;entryDx=0;entryDy=0;exitX=0;exitY=0.5;exitDx=0;exitDy=0;" edge="1" parent="1" source="iKPsb3ESiAYjKRTTwFBM-42" target="iKPsb3ESiAYjKRTTwFBM-81">
          <mxGeometry width="50" height="50" relative="1" as="geometry">
            <mxPoint x="530" y="270" as="sourcePoint" />
            <mxPoint x="434" y="265" as="targetPoint" />
          </mxGeometry>
        </mxCell>
        <mxCell id="iKPsb3ESiAYjKRTTwFBM-109" value="" style="endArrow=none;html=1;rounded=0;entryX=0.925;entryY=0.308;entryDx=0;entryDy=0;exitX=0;exitY=0.5;exitDx=0;exitDy=0;entryPerimeter=0;" edge="1" parent="1" source="iKPsb3ESiAYjKRTTwFBM-42" target="iKPsb3ESiAYjKRTTwFBM-80">
          <mxGeometry width="50" height="50" relative="1" as="geometry">
            <mxPoint x="60" y="290" as="sourcePoint" />
            <mxPoint x="-119" y="234" as="targetPoint" />
          </mxGeometry>
        </mxCell>
        <mxCell id="iKPsb3ESiAYjKRTTwFBM-110" value="" style="endArrow=none;html=1;rounded=0;entryX=0.5;entryY=0;entryDx=0;entryDy=0;exitX=0;exitY=0.5;exitDx=0;exitDy=0;" edge="1" parent="1" source="iKPsb3ESiAYjKRTTwFBM-42" target="iKPsb3ESiAYjKRTTwFBM-83">
          <mxGeometry width="50" height="50" relative="1" as="geometry">
            <mxPoint x="70" y="300" as="sourcePoint" />
            <mxPoint x="-109" y="244" as="targetPoint" />
          </mxGeometry>
        </mxCell>
        <mxCell id="iKPsb3ESiAYjKRTTwFBM-111" value="" style="endArrow=none;html=1;rounded=0;entryX=0.73;entryY=0.011;entryDx=0;entryDy=0;exitX=0;exitY=0.5;exitDx=0;exitDy=0;entryPerimeter=0;" edge="1" parent="1" source="iKPsb3ESiAYjKRTTwFBM-42" target="iKPsb3ESiAYjKRTTwFBM-82">
          <mxGeometry width="50" height="50" relative="1" as="geometry">
            <mxPoint x="80" y="310" as="sourcePoint" />
            <mxPoint x="-99" y="254" as="targetPoint" />
          </mxGeometry>
        </mxCell>
        <mxCell id="iKPsb3ESiAYjKRTTwFBM-112" value="" style="endArrow=none;html=1;rounded=0;entryX=1;entryY=1;entryDx=0;entryDy=0;exitX=0;exitY=0;exitDx=0;exitDy=0;" edge="1" parent="1" source="iKPsb3ESiAYjKRTTwFBM-43" target="iKPsb3ESiAYjKRTTwFBM-49">
          <mxGeometry width="50" height="50" relative="1" as="geometry">
            <mxPoint x="90" y="320" as="sourcePoint" />
            <mxPoint x="-89" y="264" as="targetPoint" />
          </mxGeometry>
        </mxCell>
        <mxCell id="iKPsb3ESiAYjKRTTwFBM-113" value="" style="endArrow=none;html=1;rounded=0;" edge="1" parent="1" target="iKPsb3ESiAYjKRTTwFBM-50">
          <mxGeometry width="50" height="50" relative="1" as="geometry">
            <mxPoint x="90" y="-10" as="sourcePoint" />
            <mxPoint x="55" y="-26" as="targetPoint" />
          </mxGeometry>
        </mxCell>
        <mxCell id="iKPsb3ESiAYjKRTTwFBM-114" value="" style="endArrow=none;html=1;rounded=0;entryX=0.393;entryY=0.983;entryDx=0;entryDy=0;exitX=0;exitY=0;exitDx=0;exitDy=0;entryPerimeter=0;" edge="1" parent="1" source="iKPsb3ESiAYjKRTTwFBM-43" target="iKPsb3ESiAYjKRTTwFBM-46">
          <mxGeometry width="50" height="50" relative="1" as="geometry">
            <mxPoint x="110" as="sourcePoint" />
            <mxPoint x="65" y="-16" as="targetPoint" />
          </mxGeometry>
        </mxCell>
        <mxCell id="iKPsb3ESiAYjKRTTwFBM-115" value="" style="endArrow=none;html=1;rounded=0;entryX=0.304;entryY=1.05;entryDx=0;entryDy=0;exitX=0;exitY=0;exitDx=0;exitDy=0;entryPerimeter=0;" edge="1" parent="1" source="iKPsb3ESiAYjKRTTwFBM-43" target="iKPsb3ESiAYjKRTTwFBM-47">
          <mxGeometry width="50" height="50" relative="1" as="geometry">
            <mxPoint x="120" y="10" as="sourcePoint" />
            <mxPoint x="75" y="-6" as="targetPoint" />
          </mxGeometry>
        </mxCell>
        <mxCell id="iKPsb3ESiAYjKRTTwFBM-116" value="" style="endArrow=none;html=1;rounded=0;entryX=0.5;entryY=1;entryDx=0;entryDy=0;" edge="1" parent="1" source="iKPsb3ESiAYjKRTTwFBM-44" target="iKPsb3ESiAYjKRTTwFBM-54">
          <mxGeometry width="50" height="50" relative="1" as="geometry">
            <mxPoint x="810" y="80" as="sourcePoint" />
            <mxPoint x="860" y="30" as="targetPoint" />
          </mxGeometry>
        </mxCell>
        <mxCell id="iKPsb3ESiAYjKRTTwFBM-117" value="" style="endArrow=none;html=1;rounded=0;entryX=0;entryY=1;entryDx=0;entryDy=0;exitX=0.25;exitY=0;exitDx=0;exitDy=0;" edge="1" parent="1" source="iKPsb3ESiAYjKRTTwFBM-44" target="iKPsb3ESiAYjKRTTwFBM-51">
          <mxGeometry width="50" height="50" relative="1" as="geometry">
            <mxPoint x="724" y="-70" as="sourcePoint" />
            <mxPoint x="640" y="-140" as="targetPoint" />
          </mxGeometry>
        </mxCell>
        <mxCell id="iKPsb3ESiAYjKRTTwFBM-118" value="" style="endArrow=none;html=1;rounded=0;exitX=0.25;exitY=0;exitDx=0;exitDy=0;" edge="1" parent="1" source="iKPsb3ESiAYjKRTTwFBM-44" target="iKPsb3ESiAYjKRTTwFBM-52">
          <mxGeometry width="50" height="50" relative="1" as="geometry">
            <mxPoint x="734" y="-60" as="sourcePoint" />
            <mxPoint x="650" y="-130" as="targetPoint" />
          </mxGeometry>
        </mxCell>
        <mxCell id="iKPsb3ESiAYjKRTTwFBM-119" value="" style="endArrow=none;html=1;rounded=0;entryX=0;entryY=0.5;entryDx=0;entryDy=0;exitX=1;exitY=0.25;exitDx=0;exitDy=0;" edge="1" parent="1" source="iKPsb3ESiAYjKRTTwFBM-44" target="iKPsb3ESiAYjKRTTwFBM-53">
          <mxGeometry width="50" height="50" relative="1" as="geometry">
            <mxPoint x="744" y="-50" as="sourcePoint" />
            <mxPoint x="660" y="-120" as="targetPoint" />
          </mxGeometry>
        </mxCell>
      </root>
    </mxGraphModel>
  </diagram>
</mxfile>
